999
\"DXF R12 Output\" (www.mydxf.blogspot.com)
 0 
SECTION
 2 
HEADER
 9 
$ACADVER
 1 
AC1009
 9 
$EXTMIN
 10 
 0 
 20 
 0 
 9 
$EXTMAX
 10 
 8.5 
 20 
 11 
 0 
ENDSEC
 0 
SECTION
 2 
ENTITIES
0
LINE
8
Layer 1
10
53.099408
20
122.696597
11
53.099408
21
182.503902
0
LINE
8
Layer 1
10
53.099408
20
182.503902
11
53.099408
21
122.696597
0
LINE
8
Layer 1
10
53.099408
20
122.696597
11
53.099408
21
122.696597
0
LINE
8
Layer 1
10
92.703949
20
122.696597
11
92.703949
21
182.503902
0
LINE
8
Layer 1
10
92.703949
20
182.503902
11
92.703949
21
122.696597
0
LINE
8
Layer 1
10
92.703949
20
122.696597
11
92.703949
21
122.696597
0
LINE
8
Layer 1
10
53.099408
20
154.736224
11
92.703949
21
154.736224
0
LINE
8
Layer 1
10
92.703949
20
154.736224
11
53.099408
21
154.736224
0
LINE
8
Layer 1
10
53.099408
20
154.736224
11
53.099408
21
154.736224
0
LINE
8
Layer 1
10
153.401240
20
132.441984
11
152.077353
21
130.356066
0
LINE
8
Layer 1
10
152.077353
20
130.356066
11
150.464238
21
128.414775
0
LINE
8
Layer 1
10
150.464238
20
128.414775
11
148.561895
21
126.618110
0
LINE
8
Layer 1
10
148.561895
20
126.618110
11
146.370322
21
124.966070
0
LINE
8
Layer 1
10
146.370322
20
124.966070
11
143.569615
21
123.369650
0
LINE
8
Layer 1
10
143.569615
20
123.369650
11
140.685486
21
122.229351
0
LINE
8
Layer 1
10
140.685486
20
122.229351
11
137.717934
21
121.545172
0
LINE
8
Layer 1
10
137.717934
20
121.545172
11
134.666959
21
121.317114
0
LINE
8
Layer 1
10
134.666959
20
121.317114
11
132.487172
21
121.408893
0
LINE
8
Layer 1
10
132.487172
20
121.408893
11
130.375527
21
121.684233
0
LINE
8
Layer 1
10
130.375527
20
121.684233
11
128.332024
21
122.143133
0
LINE
8
Layer 1
10
128.332024
20
122.143133
11
126.356663
21
122.785594
0
LINE
8
Layer 1
10
126.356663
20
122.785594
11
124.449444
21
123.611616
0
LINE
8
Layer 1
10
124.449444
20
123.611616
11
122.610367
21
124.621198
0
LINE
8
Layer 1
10
122.610367
20
124.621198
11
120.839431
21
125.814341
0
LINE
8
Layer 1
10
120.839431
20
125.814341
11
119.136637
21
127.191045
0
LINE
8
Layer 1
10
119.136637
20
127.191045
11
117.509622
21
128.756171
0
LINE
8
Layer 1
10
117.509622
20
128.756171
11
116.099543
21
130.403344
0
LINE
8
Layer 1
10
116.099543
20
130.403344
11
114.906400
21
132.132564
0
LINE
8
Layer 1
10
114.906400
20
132.132564
11
113.930192
21
133.943831
0
LINE
8
Layer 1
10
113.930192
20
133.943831
11
113.170920
21
135.837145
0
LINE
8
Layer 1
10
113.170920
20
135.837145
11
112.628583
21
137.812507
0
LINE
8
Layer 1
10
112.628583
20
137.812507
11
112.303183
21
139.869917
0
LINE
8
Layer 1
10
112.303183
20
139.869917
11
112.194718
21
142.009374
0
LINE
8
Layer 1
10
112.194718
20
142.009374
11
112.273980
21
144.433890
0
LINE
8
Layer 1
10
112.273980
20
144.433890
11
112.511772
21
146.768019
0
LINE
8
Layer 1
10
112.511772
20
146.768019
11
112.908094
21
149.011761
0
LINE
8
Layer 1
10
112.908094
20
149.011761
11
113.462947
21
151.165117
0
LINE
8
Layer 1
10
113.462947
20
151.165117
11
114.176330
21
153.228086
0
LINE
8
Layer 1
10
114.176330
20
153.228086
11
115.048243
21
155.200669
0
LINE
8
Layer 1
10
115.048243
20
155.200669
11
116.078686
21
157.082866
0
LINE
8
Layer 1
10
116.078686
20
157.082866
11
117.267660
21
158.874677
0
LINE
8
Layer 1
10
117.267660
20
158.874677
11
118.752129
21
160.720696
0
LINE
8
Layer 1
10
118.752129
20
160.720696
11
120.357582
21
162.320580
0
LINE
8
Layer 1
10
120.357582
20
162.320580
11
122.084020
21
163.674331
0
LINE
8
Layer 1
10
122.084020
20
163.674331
11
123.931443
21
164.781948
0
LINE
8
Layer 1
10
123.931443
20
164.781948
11
125.899850
21
165.643432
0
LINE
8
Layer 1
10
125.899850
20
165.643432
11
127.989242
21
166.258783
0
LINE
8
Layer 1
10
127.989242
20
166.258783
11
130.199620
21
166.628000
0
LINE
8
Layer 1
10
130.199620
20
166.628000
11
132.530983
21
166.751085
0
LINE
8
Layer 1
10
132.530983
20
166.751085
11
135.064838
21
166.670769
0
LINE
8
Layer 1
10
135.064838
20
166.670769
11
137.448856
21
166.429839
0
LINE
8
Layer 1
10
137.448856
20
166.429839
11
139.683038
21
166.028295
0
LINE
8
Layer 1
10
139.683038
20
166.028295
11
141.767381
21
165.466136
0
LINE
8
Layer 1
10
141.767381
20
165.466136
11
143.701888
21
164.743364
0
LINE
8
Layer 1
10
143.701888
20
164.743364
11
145.486558
21
163.859977
0
LINE
8
Layer 1
10
145.486558
20
163.859977
11
147.121390
21
162.815977
0
LINE
8
Layer 1
10
147.121390
20
162.815977
11
148.606385
21
161.611362
0
LINE
8
Layer 1
10
148.606385
20
161.611362
11
149.941544
21
160.246132
0
LINE
8
Layer 1
10
149.941544
20
160.246132
11
151.126865
21
158.720288
0
LINE
8
Layer 1
10
151.126865
20
158.720288
11
152.162350
21
157.033830
0
LINE
8
Layer 1
10
152.162350
20
157.033830
11
153.047997
21
155.186758
0
LINE
8
Layer 1
10
153.047997
20
155.186758
11
153.783808
21
153.179070
0
LINE
8
Layer 1
10
153.783808
20
153.179070
11
154.369782
21
151.010769
0
LINE
8
Layer 1
10
154.369782
20
151.010769
11
154.805919
21
148.681853
0
LINE
8
Layer 1
10
154.805919
20
148.681853
11
155.092219
21
146.192322
0
LINE
8
Layer 1
10
155.092219
20
146.192322
11
112.550713
21
146.192322
0
LINE
8
Layer 1
10
112.550713
20
146.192322
11
153.401240
21
132.441984
0
LINE
8
Layer 1
10
153.401240
20
132.441984
11
153.401240
21
132.441984
0
LINE
8
Layer 1
10
172.580520
20
122.696597
11
172.580520
21
183.482889
0
LINE
8
Layer 1
10
172.580520
20
183.482889
11
172.580520
21
122.696597
0
LINE
8
Layer 1
10
172.580520
20
122.696597
11
172.580520
21
122.696597
0
LINE
8
Layer 1
10
190.914302
20
122.696597
11
190.914302
21
183.482889
0
LINE
8
Layer 1
10
190.914302
20
183.482889
11
190.914302
21
122.696597
0
LINE
8
Layer 1
10
190.914302
20
122.696597
11
190.914302
21
122.696597
0
LINE
8
Layer 1
10
208.180096
20
144.990837
11
208.283694
21
147.136536
0
LINE
8
Layer 1
10
208.283694
20
147.136536
11
208.594493
21
149.212707
0
LINE
8
Layer 1
10
208.594493
20
149.212707
11
209.112494
21
151.219351
0
LINE
8
Layer 1
10
209.112494
20
151.219351
11
209.837696
21
153.156467
0
LINE
8
Layer 1
10
209.837696
20
153.156467
11
210.770100
21
155.024055
0
LINE
8
Layer 1
10
210.770100
20
155.024055
11
211.909705
21
156.822117
0
LINE
8
Layer 1
10
211.909705
20
156.822117
11
213.256512
21
158.550651
0
LINE
8
Layer 1
10
213.256512
20
158.550651
11
214.810521
21
160.209659
0
LINE
8
Layer 1
10
214.810521
20
160.209659
11
216.500104
21
161.732361
0
LINE
8
Layer 1
10
216.500104
20
161.732361
11
218.253657
21
163.052039
0
LINE
8
Layer 1
10
218.253657
20
163.052039
11
220.071179
21
164.168691
0
LINE
8
Layer 1
10
220.071179
20
164.168691
11
221.952671
21
165.082319
0
LINE
8
Layer 1
10
221.952671
20
165.082319
11
223.898133
21
165.792922
0
LINE
8
Layer 1
10
223.898133
20
165.792922
11
225.907565
21
166.300501
0
LINE
8
Layer 1
10
225.907565
20
166.300501
11
227.980968
21
166.605055
0
LINE
8
Layer 1
10
227.980968
20
166.605055
11
230.118341
21
166.706584
0
LINE
8
Layer 1
10
230.118341
20
166.706584
11
232.325226
21
166.596711
0
LINE
8
Layer 1
10
232.325226
20
166.596711
11
234.451458
21
166.267126
0
LINE
8
Layer 1
10
234.451458
20
166.267126
11
236.497038
21
165.717830
0
LINE
8
Layer 1
10
236.497038
20
165.717830
11
238.461966
21
164.948821
0
LINE
8
Layer 1
10
238.461966
20
164.948821
11
240.346242
21
163.960100
0
LINE
8
Layer 1
10
240.346242
20
163.960100
11
242.149867
21
162.751668
0
LINE
8
Layer 1
10
242.149867
20
162.751668
11
243.872839
21
161.323523
0
LINE
8
Layer 1
10
243.872839
20
161.323523
11
245.515161
21
159.675666
0
LINE
8
Layer 1
10
245.515161
20
159.675666
11
246.964855
21
157.938089
0
LINE
8
Layer 1
10
246.964855
20
157.938089
11
248.221259
21
156.129595
0
LINE
8
Layer 1
10
248.221259
20
156.129595
11
249.284372
21
154.250183
0
LINE
8
Layer 1
10
249.284372
20
154.250183
11
250.154196
21
152.299853
0
LINE
8
Layer 1
10
250.154196
20
152.299853
11
250.830729
21
150.278605
0
LINE
8
Layer 1
10
250.830729
20
150.278605
11
251.313973
21
148.186439
0
LINE
8
Layer 1
10
251.313973
20
148.186439
11
251.603927
21
146.023355
0
LINE
8
Layer 1
10
251.603927
20
146.023355
11
251.700592
21
143.789352
0
LINE
8
Layer 1
10
251.700592
20
143.789352
11
251.603232
21
141.558114
0
LINE
8
Layer 1
10
251.603232
20
141.558114
11
251.311191
21
139.403362
0
LINE
8
Layer 1
10
251.311191
20
139.403362
11
250.824471
21
137.325096
0
LINE
8
Layer 1
10
250.824471
20
137.325096
11
250.143071
21
135.323314
0
LINE
8
Layer 1
10
250.143071
20
135.323314
11
249.266990
21
133.398017
0
LINE
8
Layer 1
10
249.266990
20
133.398017
11
248.196228
21
131.549206
0
LINE
8
Layer 1
10
248.196228
20
131.549206
11
246.930786
21
129.776878
0
LINE
8
Layer 1
10
246.930786
20
129.776878
11
245.470663
21
128.081035
0
LINE
8
Layer 1
10
245.470663
20
128.081035
11
243.837380
21
126.495739
0
LINE
8
Layer 1
10
243.837380
20
126.495739
11
242.119274
21
125.121817
0
LINE
8
Layer 1
10
242.119274
20
125.121817
11
240.316344
21
123.959267
0
LINE
8
Layer 1
10
240.316344
20
123.959267
11
238.428591
21
123.008091
0
LINE
8
Layer 1
10
238.428591
20
123.008091
11
236.456015
21
122.268288
0
LINE
8
Layer 1
10
236.456015
20
122.268288
11
234.398615
21
121.739857
0
LINE
8
Layer 1
10
234.398615
20
121.739857
11
232.256391
21
121.422799
0
LINE
8
Layer 1
10
232.256391
20
121.422799
11
230.029343
21
121.317114
0
LINE
8
Layer 1
10
230.029343
20
121.317114
11
227.638879
21
121.426971
0
LINE
8
Layer 1
10
227.638879
20
121.426971
11
225.362447
21
121.756545
0
LINE
8
Layer 1
10
225.362447
20
121.756545
11
223.200048
21
122.305835
0
LINE
8
Layer 1
10
223.200048
20
122.305835
11
221.151680
21
123.074841
0
LINE
8
Layer 1
10
221.151680
20
123.074841
11
219.217345
21
124.063564
0
LINE
8
Layer 1
10
219.217345
20
124.063564
11
217.397041
21
125.272003
0
LINE
8
Layer 1
10
217.397041
20
125.272003
11
215.690769
21
126.700159
0
LINE
8
Layer 1
10
215.690769
20
126.700159
11
214.098528
21
128.348032
0
LINE
8
Layer 1
10
214.098528
20
128.348032
11
212.711392
21
130.077944
0
LINE
8
Layer 1
10
212.711392
20
130.077944
11
211.509209
21
131.907982
0
LINE
8
Layer 1
10
211.509209
20
131.907982
11
210.491977
21
133.838144
0
LINE
8
Layer 1
10
210.491977
20
133.838144
11
209.659697
21
135.868432
0
LINE
8
Layer 1
10
209.659697
20
135.868432
11
209.012369
21
137.998844
0
LINE
8
Layer 1
10
209.012369
20
137.998844
11
208.549993
21
140.229383
0
LINE
8
Layer 1
10
208.549993
20
140.229383
11
208.272569
21
142.560047
0
LINE
8
Layer 1
10
208.272569
20
142.560047
11
208.180096
21
144.990837
0
LINE
8
Layer 1
10
208.180096
20
144.990837
11
208.180096
21
144.990837
0
LINE
8
Layer 1
10
208.180096
20
144.990837
11
208.180096
21
144.990837
 0 
ENDSEC
 0 
EOF
